<svg width="179" height="36" viewBox="0 0 179 36" fill="none" xmlns="http://www.w3.org/2000/svg">
<circle cx="18" cy="18" r="18" fill="black"/>
<circle cx="18" cy="17.6111" r="11" fill="#FEFEFE"/>
<rect x="17.3857" y="6" width="1.22222" height="23.2222" fill="black"/>
<ellipse cx="17.9997" cy="17.6111" rx="9.16667" ry="9.16667" fill="black"/>
<ellipse cx="17.9984" cy="17.6111" rx="7.33333" ry="7.33333" fill="#FEFEFE"/>
<rect x="9.44482" y="17" width="17.1111" height="1.22222" fill="black"/>
<circle cx="17.9927" cy="17.6111" r="5.5" fill="black"/>
<path d="M21.6659 17.6111C21.6659 19.6362 20.0242 21.2778 17.9992 21.2778C15.9741 21.2778 14.3325 19.6362 14.3325 17.6111C14.3325 15.5861 15.9741 13.9444 17.9992 13.9444C20.0242 13.9444 21.6659 15.5861 21.6659 17.6111Z" fill="#FEFEFE"/>
<path d="M19.8327 17.6111C19.8327 18.6236 19.0119 19.4445 17.9993 19.4445C16.9868 19.4445 16.166 18.6236 16.166 17.6111C16.166 16.5986 16.9868 15.7778 17.9993 15.7778C19.0119 15.7778 19.8327 16.5986 19.8327 17.6111Z" fill="black"/>
<path d="M50.7045 7.63636H56.1534V21.5966C56.1468 22.9223 55.812 24.089 55.1491 25.0966C54.4929 26.0975 53.5848 26.8797 52.4247 27.4432C51.2713 28 49.9422 28.2784 48.4375 28.2784C47.1316 28.2784 45.9384 28.053 44.858 27.6023C43.7775 27.1449 42.9157 26.429 42.2727 25.4545C41.6297 24.4735 41.3116 23.2008 41.3182 21.6364H46.8466C46.8665 22.1468 46.9527 22.5777 47.1051 22.929C47.2642 23.2803 47.483 23.5455 47.7614 23.7244C48.0464 23.8968 48.3911 23.983 48.7955 23.983C49.2064 23.983 49.5511 23.8935 49.8295 23.7145C50.1146 23.5355 50.33 23.2704 50.4759 22.919C50.6217 22.5611 50.6979 22.1203 50.7045 21.5966V7.63636ZM78.2207 17.8182C78.2207 20.0852 77.7799 21.9976 76.8983 23.5554C76.0166 25.1065 74.8268 26.2831 73.3287 27.0852C71.8306 27.8807 70.1601 28.2784 68.3173 28.2784C66.4612 28.2784 64.7842 27.8774 63.2861 27.0753C61.7946 26.2666 60.608 25.0866 59.7264 23.5355C58.8514 21.9777 58.4139 20.072 58.4139 17.8182C58.4139 15.5511 58.8514 13.642 59.7264 12.0909C60.608 10.5331 61.7946 9.35653 63.2861 8.56108C64.7842 7.759 66.4612 7.35795 68.3173 7.35795C70.1601 7.35795 71.8306 7.759 73.3287 8.56108C74.8268 9.35653 76.0166 10.5331 76.8983 12.0909C77.7799 13.642 78.2207 15.5511 78.2207 17.8182ZM72.5332 17.8182C72.5332 16.5985 72.3708 15.571 72.046 14.7358C71.7278 13.8939 71.2539 13.2576 70.6241 12.8267C70.001 12.3892 69.2321 12.1705 68.3173 12.1705C67.4025 12.1705 66.6303 12.3892 66.0005 12.8267C65.3774 13.2576 64.9035 13.8939 64.5787 14.7358C64.2605 15.571 64.1014 16.5985 64.1014 17.8182C64.1014 19.0379 64.2605 20.0687 64.5787 20.9105C64.9035 21.7457 65.3774 22.3821 66.0005 22.8196C66.6303 23.2505 67.4025 23.4659 68.3173 23.4659C69.2321 23.4659 70.001 23.2505 70.6241 22.8196C71.2539 22.3821 71.7278 21.7457 72.046 20.9105C72.3708 20.0687 72.5332 19.0379 72.5332 17.8182ZM80.4986 28V7.63636H89.3281C90.8793 7.63636 92.1818 7.84517 93.2358 8.26278C94.2964 8.6804 95.0952 9.27036 95.6321 10.0327C96.1757 10.795 96.4475 11.6932 96.4475 12.7273C96.4475 13.4763 96.2817 14.1591 95.9503 14.7756C95.6255 15.392 95.1681 15.9091 94.5781 16.3267C93.9882 16.7377 93.2988 17.0227 92.51 17.1818V17.3807C93.385 17.4138 94.1804 17.6359 94.8963 18.0469C95.6122 18.4512 96.1823 19.0114 96.6065 19.7273C97.0308 20.4366 97.2429 21.2718 97.2429 22.233C97.2429 23.3466 96.9512 24.3376 96.3679 25.206C95.7912 26.0743 94.9692 26.7571 93.902 27.2543C92.8348 27.7514 91.562 28 90.0838 28H80.4986ZM86.027 23.5852H88.6122C89.5403 23.5852 90.2363 23.4129 90.7003 23.0682C91.1643 22.7169 91.3963 22.1998 91.3963 21.517C91.3963 21.0398 91.2869 20.6354 91.0682 20.304C90.8494 19.9725 90.5379 19.7206 90.1335 19.5483C89.7358 19.3759 89.2552 19.2898 88.6918 19.2898H86.027V23.5852ZM86.027 15.8693H88.294C88.7779 15.8693 89.2055 15.7931 89.5767 15.6406C89.9479 15.4882 90.2363 15.2694 90.4418 14.9844C90.6539 14.6927 90.76 14.3381 90.76 13.9205C90.76 13.2907 90.5346 12.8101 90.0838 12.4787C89.6331 12.1406 89.063 11.9716 88.3736 11.9716H86.027V15.8693ZM116.541 7.63636V28H111.927L104.569 17.3011H104.45V28H98.9217V7.63636H103.615L110.854 18.2955H111.013V7.63636H116.541ZM118.876 28V7.63636H133.552V12.0909H124.405V15.5909H132.797V20.0455H124.405V23.5455H133.512V28H118.876ZM141.94 7.63636L145.281 13.5625H145.44L148.821 7.63636H154.986L148.9 17.8182L155.224 28H148.9L145.44 21.9545H145.281L141.821 28H135.537L141.781 17.8182L135.736 7.63636H141.94ZM162.379 28H156.413L163.135 7.63636H170.692L177.413 28H171.447L166.993 13.2443H166.834L162.379 28ZM161.266 19.9659H172.482V24.1023H161.266V19.9659Z" fill="black"/>
</svg>
